<?xml version="1.0" encoding="utf-8"?>
<!-- Generator: Adobe Illustrator 24.0.1, SVG Export Plug-In . SVG Version: 6.00 Build 0)  -->
<svg version="1.1" id="Layer_1" xmlns="http://www.w3.org/2000/svg" xmlns:xlink="http://www.w3.org/1999/xlink" x="0px" y="0px"
	 viewBox="0 0 108.3 58.4" style="enable-background:new 0 0 108.3 58.4;" xml:space="preserve">
<style type="text/css">
	.st0{fill:#FFFFFF;}
	.st1{fill:#252628;}
	.st2{fill:#58A947;}
	.st3{fill:#F48414;}
</style>
<g id="Layer_2_1_">
	<g id="Layer_1-2">
		<path class="st0" d="M98.7,3.2H8.1c-2.2,0-3.9,1.8-3.9,3.9c0,0,0,0,0,0v36.2c0,2.2,1.8,3.9,3.9,3.9h63.5v8.1L84,47.2h14.6
			c2.2,0,3.9-1.8,3.9-3.9v0V7.1C102.6,4.9,100.8,3.2,98.7,3.2C98.7,3.2,98.7,3.2,98.7,3.2z"/>
		<path class="st1" d="M56.9,8.7L56.9,8.7c0,0,0.4,0.4,1,1v2.8c-0.3,0.3-0.5,0.6-0.8,0.8c0,0-0.1-0.1-0.3-0.3L56.9,8.7z M57.1,13.6
			c0.3,0.3,0.5,0.5,0.8,0.8v2.7c-0.6,0.6-1,1-1,1.1l0,0v-4.3C57,13.7,57.1,13.6,57.1,13.6z M57.1,8.7h4.3c0.1,0.1,0.2,0.2,0.3,0.3
			c-0.3,0.3-0.5,0.6-0.8,0.8h-2.7C57.6,9.1,57.2,8.7,57.1,8.7L57.1,8.7z M58.1,17.1h2.7c0,0,0.3,0.3,0.8,0.8c0,0-0.1,0.1-0.3,0.3
			h-4.3l0,0C57.8,17.6,58.1,17.2,58.1,17.1L58.1,17.1z M61.9,8.9C62,9,62.1,9.1,62.2,9.2V13c-0.1,0.1-0.2,0.2-0.3,0.3
			c0,0-0.3-0.3-0.8-0.8V9.7C61.4,9.4,61.7,9.2,61.9,8.9L61.9,8.9z M61.9,13.6c0.1,0.1,0.2,0.2,0.3,0.3v3.8c-0.1,0.1-0.2,0.2-0.3,0.3
			c-0.3-0.3-0.5-0.5-0.8-0.8v-2.7C61.4,14.1,61.7,13.8,61.9,13.6L61.9,13.6z"/>
		<path class="st1" d="M63.2,8.7c0.3,0.3,0.5,0.5,0.8,0.8v3.1c-0.3,0.3-0.5,0.5-0.8,0.8c-0.1-0.1-0.2-0.2-0.3-0.3V8.9
			C63,8.8,63.1,8.7,63.2,8.7z M63.8,13.6c0.1,0.1,0.2,0.2,0.3,0.3v4.1c0,0-0.1,0.1-0.3,0.3c-0.3-0.3-0.6-0.5-0.8-0.8v-3.1
			C63.2,14.1,63.5,13.8,63.8,13.6z"/>
		<path class="st1" d="M65.1,13.6c0.3,0.3,0.5,0.5,0.8,0.8v2.7c0,0-0.3,0.3-0.8,0.8c0,0-0.1-0.1-0.3-0.3v-3.8
			C64.9,13.7,65,13.6,65.1,13.6z M66.1,17.2h2.7c0,0,0.3,0.3,0.8,0.8c0,0-0.1,0.1-0.3,0.3h-3.8c0,0-0.1-0.1-0.3-0.3
			C65.3,17.9,65.6,17.7,66.1,17.2z M69.9,8.7c0.1,0.1,0.2,0.2,0.3,0.3V13c0,0-0.1,0.1-0.3,0.3c0,0-0.3-0.3-0.8-0.8v-3
			C69.1,9.5,69.4,9.2,69.9,8.7L69.9,8.7z M69.9,13.6c0.1,0.1,0.2,0.2,0.3,0.3v3.8c-0.1,0.1-0.2,0.2-0.3,0.3
			c-0.3-0.2-0.5-0.5-0.8-0.8v-2.8C69.1,14.4,69.4,14.1,69.9,13.6L69.9,13.6z"/>
		<path class="st1" d="M71.1,8.7c0.3,0.3,0.6,0.5,0.8,0.8v3.1c-0.3,0.3-0.5,0.5-0.8,0.8C71,13.2,71,13.1,70.9,13V8.9
			C71,8.8,71,8.7,71.1,8.7z M71.7,13.6c0.1,0.1,0.2,0.2,0.3,0.3v4.1c0,0-0.1,0.1-0.3,0.3c0,0-0.3-0.3-0.8-0.8v-3.1
			C71.1,14.1,71.4,13.8,71.7,13.6L71.7,13.6z"/>
		<path class="st1" d="M73,8.7h4.8c0,0,0.1,0.1,0.3,0.3c-0.3,0.3-0.5,0.6-0.8,0.8h-3.8c-0.3-0.3-0.5-0.5-0.8-0.8
			C72.8,8.8,72.9,8.7,73,8.7z M75.3,10.2c0,0,0.3,0.3,0.8,0.8v2.1c0,0-0.3,0.3-0.8,0.8c-0.1-0.1-0.2-0.2-0.3-0.3v-3.2
			C75.1,10.5,75.1,10.4,75.3,10.2z M75.9,14.5c0,0,0.1,0.1,0.3,0.3v3.2c0,0-0.1,0.1-0.3,0.3c0,0-0.3-0.3-0.8-0.8v-2.1
			C75.3,15,75.6,14.7,75.9,14.5z"/>
		<path class="st1" d="M79.1,9c0.3,0.3,0.6,0.5,0.8,0.8v2.7c-0.3,0.3-0.5,0.6-0.8,0.8c-0.1-0.1-0.2-0.2-0.3-0.3V9.2
			C78.9,9.1,79,9,79.1,9z M79.1,13.6c0.3,0.3,0.6,0.5,0.8,0.8v3.1c-0.3,0.3-0.5,0.5-0.8,0.8c-0.1-0.1-0.2-0.2-0.3-0.3v-4.1
			C78.9,13.7,79,13.6,79.1,13.6z M79.6,8.7h3.8c0.1,0.1,0.2,0.2,0.3,0.3c-0.3,0.3-0.5,0.6-0.8,0.8h-2.7c-0.3-0.3-0.5-0.5-0.8-0.8
			C79.4,8.8,79.5,8.7,79.6,8.7z M79.9,12.9H83c0.2,0.2,0.4,0.3,0.5,0.5l0,0c-0.2,0.2-0.3,0.4-0.5,0.5h-3.2c-0.2-0.2-0.4-0.3-0.5-0.5
			l0,0C79.5,13.2,79.7,13,79.9,12.9z M83.9,8.9C84,9,84.1,9.1,84.1,9.2V13c-0.1,0.1-0.2,0.2-0.3,0.3c0,0-0.3-0.3-0.8-0.8V9.7
			C83.3,9.4,83.6,9.2,83.9,8.9L83.9,8.9z M83.9,13.6c0.1,0.1,0.2,0.2,0.3,0.3v4.1c0,0-0.1,0.1-0.3,0.3c0,0-0.3-0.3-0.8-0.8v-3.1
			C83.3,14.1,83.6,13.8,83.9,13.6L83.9,13.6z"/>
		<path class="st1" d="M84.8,8.7L84.8,8.7c0,0,0.4,0.4,1,1.1v2.7c-0.3,0.3-0.5,0.6-0.8,0.8c-0.1-0.1-0.2-0.2-0.3-0.3L84.8,8.7z
			 M85.1,13.6c0.3,0.3,0.5,0.5,0.8,0.8v2.7c0,0-0.3,0.3-0.8,0.8c-0.1-0.1-0.2-0.2-0.3-0.3v-3.8C85,13.7,85,13.6,85.1,13.6z
			 M86.1,17.2h2.7c0.3,0.3,0.6,0.5,0.8,0.8c0,0-0.1,0.1-0.3,0.3h-3.8c-0.1-0.1-0.2-0.2-0.3-0.3C85.3,18,85.6,17.7,86.1,17.2z"/>
		<path class="st1" d="M57.1,20.7c0.3,0.3,0.5,0.5,0.8,0.8v3c0,0-0.3,0.3-0.8,0.8c-0.4,0.3-0.4,0.2-0.3-0.3V21
			C57,20.9,57,20.8,57.1,20.7z M57.1,25.6c0.3,0.3,0.5,0.5,0.8,0.8v3c0,0-0.3,0.3-0.8,0.8c-0.4,0.3-0.4,0.2-0.3-0.3v-4.1
			C57,25.8,57,25.7,57.1,25.6z M57.9,24.9h3.2c0.2,0.2,0.4,0.3,0.5,0.5l0,0c-0.2,0.2-0.3,0.4-0.5,0.5H58c-0.2-0.2-0.4-0.3-0.5-0.5
			l0,0C57.6,25.2,57.8,25.1,57.9,24.9L57.9,24.9z M61.1,21.9h1l0.1,0.1v0.3l-2.3,2.2h-1c0,0-0.1,0-0.1-0.1l0,0v-0.3L61.1,21.9z
			 M62,25.6c0.1,0.1,0.2,0.2,0.3,0.3v4.1c-0.1,0.1-0.2,0.2-0.3,0.3c0,0-0.3-0.3-0.8-0.8v-3C61.4,26.1,61.7,25.8,62,25.6L62,25.6z"/>
		<path class="st1" d="M63.2,20.7c0.3,0.3,0.5,0.5,0.8,0.8v3c-0.3,0.3-0.5,0.5-0.8,0.8c-0.1-0.1-0.2-0.2-0.3-0.3V21
			C63,20.9,63.1,20.8,63.2,20.7z M63.2,25.6c0,0,0.3,0.3,0.8,0.8v2.8c-0.3,0.3-0.5,0.5-0.8,0.8c-0.1-0.1-0.2-0.2-0.3-0.3v-3.8
			C62.9,25.9,63,25.8,63.2,25.6z M64.3,29.2H67c0,0,0.3,0.3,0.8,0.8c-0.1,0.1-0.2,0.2-0.3,0.3h-3.8c0,0-0.1-0.1-0.3-0.3
			C63.5,30,63.8,29.7,64.3,29.2z M68.1,20.7c0,0,0.1,0.1,0.3,0.3v4.1c0,0-0.1,0.1-0.3,0.3c0,0-0.3-0.3-0.8-0.8v-3
			C67.3,21.5,67.5,21.2,68.1,20.7L68.1,20.7z M68.1,25.7c0,0,0.1,0.1,0.3,0.3v3.8c0,0-0.1,0.1-0.3,0.3c0,0-0.3-0.3-0.8-0.8v-2.8
			C67.3,26.4,67.5,26.2,68.1,25.7L68.1,25.7z"/>
		<path class="st1" d="M69,20.7L69,20.7c0.4,0.3,0.7,0.7,1.1,1.1v2.7c0,0-0.3,0.3-0.8,0.8c0,0-0.1-0.1-0.3-0.3L69,20.7z M69.3,25.6
			c0.3,0.3,0.5,0.5,0.8,0.8v2.8c0,0-0.3,0.3-0.8,0.8c-0.4,0.3-0.4,0.2-0.3-0.3v-3.8C69.1,25.8,69.2,25.7,69.3,25.6z M70.3,29.2H73
			c0,0,0.3,0.3,0.8,0.8c-0.1,0.1-0.2,0.2-0.3,0.3h-3.8c-0.1-0.1-0.2-0.2-0.3-0.3C69.8,29.7,70,29.4,70.3,29.2L70.3,29.2z"/>
		<path class="st1" d="M75.3,20.7c0.3,0.3,0.5,0.5,0.8,0.8v3c-0.3,0.3-0.5,0.5-0.8,0.8c-0.1-0.1-0.2-0.2-0.3-0.3V21
			C75.1,20.9,75.2,20.8,75.3,20.7z M75.3,25.6c0,0,0.3,0.3,0.8,0.8v2.8c-0.3,0.3-0.5,0.5-0.8,0.8c-0.1-0.1-0.2-0.2-0.3-0.3v-3.8
			C75.1,25.9,75.1,25.8,75.3,25.6z M76.4,29.2h2.8c0,0,0.3,0.3,0.8,0.8c-0.1,0.1-0.2,0.2-0.3,0.3h-3.8c0,0-0.1-0.1-0.3-0.3
			C75.6,30,75.9,29.7,76.4,29.2z M80.1,20.7c0.1,0.1,0.2,0.2,0.3,0.3v4.1c0,0-0.1,0.1-0.3,0.3c-0.3-0.3-0.6-0.5-0.8-0.8v-3.1
			C79.3,21.5,79.6,21.2,80.1,20.7z M80.1,25.7c0.1,0.1,0.2,0.2,0.3,0.3v3.8c0,0-0.1,0.1-0.3,0.3c-0.3-0.3-0.6-0.5-0.8-0.8v-2.8
			C79.6,26.2,79.9,25.9,80.1,25.7L80.1,25.7z"/>
		<path class="st1" d="M81.4,21c0,0,0.3,0.3,0.8,0.8v2.7c0,0-0.3,0.3-0.8,0.8c0,0-0.1-0.1-0.3-0.3v-3.8C81.1,21.3,81.2,21.2,81.4,21
			z M81.4,25.6c0.3,0.3,0.5,0.5,0.8,0.8v2.8c0,0-0.3,0.3-0.8,0.8c-0.4,0.3-0.4,0.2-0.2-0.3v-3.8C81.2,25.8,81.3,25.7,81.4,25.6z
			 M82.4,29.2h2.8c0,0,0.3,0.3,0.8,0.8c-0.1,0.1-0.2,0.2-0.3,0.3h-3.8c-0.1-0.1-0.2-0.2-0.3-0.3C81.9,29.7,82.1,29.4,82.4,29.2
			L82.4,29.2z M81.9,20.7h3.8c0.1,0.1,0.2,0.2,0.3,0.3c0,0-0.3,0.3-0.8,0.8h-2.7c-0.3-0.3-0.6-0.5-0.8-0.8
			C81.7,20.9,81.8,20.8,81.9,20.7L81.9,20.7z"/>
		<path class="st1" d="M87.4,20.7c0.3,0.3,0.5,0.5,0.8,0.8v3c-0.3,0.3-0.5,0.5-0.8,0.8c-0.1-0.1-0.2-0.2-0.3-0.3V21
			C87.2,20.9,87.3,20.8,87.4,20.7z M87.4,25.6c0.3,0.3,0.5,0.5,0.8,0.8v3c-0.3,0.3-0.5,0.5-0.8,0.8c-0.1-0.1-0.2-0.2-0.3-0.3v-4.1
			C87.2,25.8,87.3,25.7,87.4,25.6z M88.2,24.9h3.2c0.2,0.2,0.4,0.3,0.5,0.5l0,0c-0.2,0.2-0.3,0.4-0.5,0.5h-3.2
			c-0.2-0.2-0.4-0.3-0.5-0.5l0,0C87.9,25.2,88,25.1,88.2,24.9z M91.4,21.9h1l0.1,0.1v0.3l-2.3,2.2h-1c0,0-0.1,0-0.1-0.1v-0.3
			L91.4,21.9z M92.3,25.6c0.1,0.1,0.2,0.2,0.3,0.3v4.1c-0.1,0.1-0.2,0.2-0.3,0.3c-0.3-0.3-0.6-0.5-0.8-0.8v-3
			C91.7,26.1,92,25.8,92.3,25.6L92.3,25.6z"/>
		<path class="st1" d="M93.5,21c0,0,0.3,0.3,0.8,0.8v2.7c0,0-0.3,0.3-0.8,0.8c0,0-0.1-0.1-0.3-0.3v-3.8C93.2,21.3,93.3,21.2,93.5,21
			z M93.5,25.6c0.3,0.3,0.5,0.5,0.8,0.8v3c0,0-0.3,0.3-0.8,0.8c-0.4,0.3-0.4,0.2-0.3-0.3v-4.1C93.3,25.8,93.4,25.7,93.5,25.6z
			 M94,20.7h3.8c0.1,0.1,0.2,0.2,0.3,0.3c0,0-0.3,0.3-0.8,0.8h-2.7c-0.3-0.3-0.6-0.5-0.8-0.8C93.8,20.9,93.9,20.8,94,20.7z
			 M94.3,24.9h3.2c0.2,0.2,0.4,0.3,0.5,0.5l0,0c-0.2,0.2-0.3,0.4-0.5,0.5h-3.2c-0.2-0.2-0.4-0.3-0.5-0.5l0,0
			C93.9,25.2,94.1,25.1,94.3,24.9z M98.3,21c0.1,0.1,0.2,0.2,0.3,0.3V25c-0.1,0.1-0.2,0.2-0.3,0.3c0,0-0.3-0.3-0.8-0.8v-2.7
			C97.8,21.5,98,21.2,98.3,21L98.3,21z M98.3,25.6c0.1,0.1,0.2,0.2,0.3,0.3V30c-0.1,0.1-0.2,0.2-0.3,0.3c0,0-0.3-0.3-0.8-0.8v-3
			C97.8,26.1,98,25.8,98.3,25.6L98.3,25.6z"/>
		<path class="st1" d="M57.1,33c0,0,0.3,0.3,0.8,0.8v2.7c0,0-0.3,0.3-0.8,0.8c0,0-0.1-0.1-0.3-0.3v-3.8C56.9,33.3,57,33.2,57.1,33z
			 M57.7,37.6c0.1,0.1,0.2,0.2,0.3,0.3V42c-0.1,0.1-0.2,0.2-0.3,0.3c0,0-0.3-0.3-0.8-0.8v-3.1C56.9,38.4,57.1,38.2,57.7,37.6
			L57.7,37.6z M57.7,32.7h3.8c0.1,0.1,0.2,0.2,0.3,0.3c0,0-0.3,0.3-0.8,0.8h-2.7c-0.3-0.2-0.6-0.5-0.8-0.8
			C57.5,32.9,57.6,32.8,57.7,32.7L57.7,32.7z M62,33c0.1,0.1,0.2,0.2,0.3,0.3v3.8c-0.1,0.1-0.2,0.2-0.3,0.3
			c-0.3-0.3-0.5-0.5-0.8-0.8v-2.7C61.4,33.5,61.7,33.2,62,33L62,33z M62,37.6c0.1,0.1,0.2,0.2,0.3,0.3V42c-0.1,0.1-0.2,0.2-0.3,0.3
			c0,0-0.3-0.3-0.8-0.8v-3.1C61.4,38.1,61.7,37.9,62,37.6L62,37.6z M62.5,32.7h3.8c0.1,0.1,0.2,0.2,0.3,0.3
			c-0.3,0.3-0.5,0.5-0.8,0.8h-2.7c-0.3-0.3-0.5-0.5-0.8-0.8C62.4,32.9,62.4,32.8,62.5,32.7L62.5,32.7z M66.8,33c0,0,0.1,0.1,0.3,0.3
			v3.8c-0.1,0.1-0.2,0.2-0.3,0.3c-0.3-0.3-0.5-0.5-0.8-0.8v-2.7C66,33.8,66.3,33.5,66.8,33L66.8,33z M66.3,37.6c0,0,0.3,0.3,0.8,0.8
			v3.1c0,0-0.3,0.3-0.8,0.8c-0.1-0.1-0.2-0.2-0.3-0.3v-4.1C66.1,37.8,66.2,37.7,66.3,37.6L66.3,37.6z"/>
		<path class="st1" d="M68.1,33c0.3,0.3,0.6,0.5,0.8,0.8v2.7c-0.3,0.3-0.5,0.5-0.8,0.8c-0.1-0.1-0.2-0.2-0.3-0.3v-3.8
			C67.9,33.3,67.9,33.2,68.1,33z M68.1,37.6c0.3,0.3,0.6,0.5,0.8,0.8v2.8c-0.3,0.3-0.5,0.6-0.8,0.8c-0.1-0.1-0.2-0.2-0.3-0.3v-3.8
			C68,37.8,68,37.7,68.1,37.6z M69.1,41.2h2.7c0,0,0.3,0.3,0.8,0.8c-0.1,0.1-0.2,0.2-0.3,0.3h-3.8c-0.1-0.1-0.2-0.2-0.3-0.3
			C68.6,41.7,68.9,41.4,69.1,41.2z M68.6,32.7h3.8c0.1,0.1,0.2,0.2,0.3,0.3c0,0-0.3,0.3-0.8,0.8h-2.8c-0.3-0.2-0.6-0.5-0.8-0.8
			C68.4,32.9,68.5,32.8,68.6,32.7L68.6,32.7z M68.9,36.9h3.2c0.2,0.2,0.4,0.3,0.5,0.5l0,0c-0.2,0.2-0.3,0.4-0.5,0.5h-3.2
			c-0.2-0.2-0.4-0.3-0.5-0.5l0,0C68.5,37.2,68.7,37.1,68.9,36.9L68.9,36.9z"/>
		<path class="st1" d="M74.1,33c0,0,0.3,0.3,0.8,0.8v2.7c-0.3,0.3-0.5,0.5-0.8,0.8c-0.1-0.1-0.2-0.2-0.3-0.3v-3.8
			C73.9,33.3,74,33.2,74.1,33z M74.1,37.6c0,0,0.3,0.3,0.8,0.8v3.1c-0.3,0.3-0.5,0.5-0.8,0.8C74,42.2,74,42.1,73.9,42v-4.1
			C74,37.8,74,37.7,74.1,37.6z M74.7,32.7h3.8c0.1,0.1,0.2,0.2,0.3,0.3c-0.3,0.3-0.5,0.5-0.8,0.8h-2.7c-0.3-0.3-0.5-0.5-0.8-0.8
			C74.5,32.9,74.6,32.8,74.7,32.7L74.7,32.7z M74.9,36.9h3.2c0.2,0.2,0.4,0.3,0.5,0.5l0,0c-0.2,0.2-0.3,0.4-0.5,0.5H75
			c-0.2-0.2-0.4-0.3-0.5-0.5l0,0C74.6,37.3,74.8,37.1,74.9,36.9L74.9,36.9z M76.8,38.3h0.8c0.4,0.2,0.7,0.8,1,1.7
			c0.1,0.2,0.3,0.8,0.7,1.9c-0.1,0.1-0.1,0.2-0.1,0.3l0,0c-0.7-0.3-1.1-0.5-1.1-0.6C77.5,40.1,77.1,39,76.8,38.3L76.8,38.3z M79,33
			c0,0,0.1,0.1,0.3,0.3v3.8c-0.1,0.1-0.2,0.2-0.3,0.3c-0.3-0.3-0.5-0.5-0.8-0.8v-2.7C78.2,33.8,78.5,33.5,79,33L79,33z"/>
		<path class="st1" d="M80.2,32.7c0.3,0.3,0.5,0.5,0.8,0.8v3c0,0-0.3,0.3-0.8,0.8c-0.4,0.3-0.4,0.2-0.3-0.3V33
			C80,32.9,80.1,32.8,80.2,32.7z M80.2,37.6c0,0,0.3,0.3,0.8,0.8v3.1c0,0-0.3,0.3-0.8,0.8c-0.4,0.3-0.4,0.2-0.3-0.3v-4.1
			C80,37.8,80.1,37.7,80.2,37.6z M81,36.9h3.1c0.2,0.2,0.4,0.3,0.5,0.5l0,0c-0.2,0.2-0.3,0.4-0.5,0.5H81c-0.2-0.2-0.4-0.3-0.5-0.5
			l0,0C80.6,37.3,80.8,37.1,81,36.9z M84.2,33.9h1l0.1,0.1v0.3L83,36.5h-1c0,0-0.1,0-0.1-0.1v-0.3L84.2,33.9z M85.1,37.6
			c0.1,0.1,0.2,0.2,0.3,0.3V42c-0.1,0.1-0.2,0.2-0.3,0.3c0,0-0.3-0.3-0.8-0.8v-3C84.5,38.1,84.8,37.9,85.1,37.6L85.1,37.6z"/>
		<path class="st1" d="M86.3,33c0,0,0.3,0.3,0.8,0.8v2.7c-0.3,0.3-0.5,0.5-0.8,0.8c-0.1-0.1-0.2-0.2-0.3-0.3v-3.8
			C86,33.3,86.1,33.2,86.3,33z M86.3,37.6c0,0,0.3,0.3,0.8,0.8v2.8c-0.2,0.3-0.5,0.6-0.8,0.8c-0.1-0.1-0.2-0.2-0.3-0.3v-3.8
			C86.1,37.8,86.2,37.7,86.3,37.6z M87.3,41.2H90c0.3,0.3,0.6,0.5,0.8,0.8c-0.1,0.1-0.2,0.2-0.3,0.3h-3.8c-0.1-0.1-0.2-0.2-0.3-0.3
			C86.5,42,86.8,41.7,87.3,41.2L87.3,41.2z M86.8,32.7h3.8c0.1,0.1,0.2,0.2,0.3,0.3c-0.3,0.3-0.5,0.5-0.8,0.8h-2.7
			c-0.3-0.3-0.5-0.5-0.8-0.8C86.6,32.9,86.7,32.8,86.8,32.7L86.8,32.7z M87,36.9h3.2c0.2,0.2,0.4,0.3,0.5,0.5l0,0
			c-0.2,0.2-0.3,0.4-0.5,0.5h-3.1c-0.2-0.2-0.4-0.3-0.5-0.5l0,0C86.7,37.3,86.9,37.1,87,36.9L87,36.9z"/>
		<path class="st1" d="M92.3,32.7h3.8c0.1,0.1,0.2,0.2,0.3,0.3c-0.3,0.3-0.5,0.5-0.8,0.8h-2.8c-0.3-0.3-0.5-0.5-0.8-0.8
			C92.1,32.9,92.2,32.8,92.3,32.7z M94.4,37.5c0.1,0.4,0.2,0.8,0.3,1.2c0,0-0.6,0.9-1.6,2.7l-0.3,0.1c-0.1-0.4-0.2-0.8-0.3-1.2
			c0.1-0.1,0.6-1,1.6-2.7L94.4,37.5z M93.8,41.2h2.7c0.3,0.3,0.6,0.5,0.8,0.8c-0.1,0.1-0.2,0.2-0.3,0.3h-3.8
			c-0.1-0.1-0.2-0.2-0.3-0.3C93,42,93.3,41.7,93.8,41.2z M96.7,33.5c0.1,0.4,0.2,0.8,0.3,1.2c0,0-0.6,0.9-1.6,2.7
			c-0.1,0-0.2,0.1-0.3,0.1c-0.1-0.4-0.2-0.8-0.3-1.2c0.1-0.1,0.6-1,1.6-2.7L96.7,33.5z"/>
		<path class="st1" d="M98.3,32.7c0.3,0.3,0.6,0.5,0.8,0.8v3c-0.3,0.3-0.5,0.5-0.8,0.8c-0.1-0.1-0.2-0.2-0.3-0.3V33
			C98.2,32.9,98.2,32.8,98.3,32.7z M98.9,37.6c0.1,0.1,0.2,0.2,0.3,0.3V42c-0.1,0.1-0.2,0.2-0.3,0.3c0,0-0.3-0.3-0.8-0.8v-3.1
			C98.3,38.1,98.6,37.9,98.9,37.6z"/>
		<path class="st1" d="M63,7.7L63,7.7c0.1-0.2,0.3-0.4,0.5-0.5l0,0c0.2,0.1,0.3,0.3,0.5,0.5l0,0c-0.1,0.2-0.3,0.3-0.5,0.5l0,0
			C63.3,8,63.2,7.8,63,7.7z"/>
		<path class="st1" d="M70.9,7.7L70.9,7.7c0.1-0.2,0.3-0.4,0.5-0.5l0,0c0.2,0.1,0.3,0.3,0.5,0.5l0,0c-0.1,0.2-0.3,0.3-0.5,0.5l0,0
			C71.2,8,71.1,7.8,70.9,7.7z"/>
		<path class="st1" d="M83.3,31L83.3,31c0.1-0.2,0.3-0.3,0.5-0.5l0,0c0.2,0.1,0.3,0.3,0.5,0.5l0,0c-0.1,0.2-0.3,0.3-0.5,0.5l0,0
			C83.6,31.3,83.4,31.1,83.3,31z"/>
		<path class="st1" d="M98.1,32.1L98.1,32.1c0.1-0.2,0.3-0.3,0.5-0.5l0,0c0.2,0.1,0.3,0.3,0.5,0.5l0,0c-0.1,0.2-0.3,0.3-0.5,0.5l0,0
			C98.4,32.4,98.3,32.2,98.1,32.1z"/>
		<path class="st1" d="M21.7,19.9c0,0.1,0,0.3,0,0.4c0,0.1,0,0.2-0.1,0.3c0,0.1-0.1,0.1-0.1,0.2c0,0-0.1,0-0.2,0
			c-0.2,0-0.3-0.1-0.5-0.2c-0.3-0.2-0.6-0.4-0.9-0.5c-0.5-0.2-0.9-0.4-1.4-0.5c-0.6-0.2-1.3-0.2-1.9-0.2c-0.8,0-1.6,0.1-2.4,0.5
			c-0.7,0.3-1.3,0.7-1.8,1.3c-0.5,0.6-0.9,1.2-1.1,2c-0.3,0.8-0.4,1.6-0.4,2.5c0,0.9,0.1,1.8,0.4,2.6c0.3,0.7,0.7,1.4,1.2,1.9
			c0.5,0.5,1.1,0.9,1.8,1.2c0.7,0.3,1.5,0.4,2.3,0.4c0.5,0,1,0,1.5-0.1c0.5-0.1,1-0.3,1.4-0.5v-4.5h-3.7c-0.1,0-0.3-0.1-0.3-0.2
			c-0.1-0.2-0.1-0.4-0.1-0.6c0-0.1,0-0.3,0-0.4c0-0.1,0-0.2,0.1-0.3c0-0.1,0.1-0.1,0.1-0.1c0.1,0,0.1,0,0.2,0h5.1c0.1,0,0.2,0,0.3,0
			c0.1,0,0.2,0.1,0.2,0.1c0.1,0.1,0.1,0.2,0.2,0.3c0,0.1,0.1,0.3,0.1,0.4v5.9c0,0.2,0,0.4-0.1,0.5c-0.1,0.2-0.3,0.3-0.5,0.4
			c-0.3,0.1-0.6,0.3-0.9,0.4c-0.4,0.1-0.8,0.3-1.2,0.3c-0.4,0.1-0.8,0.2-1.2,0.2c-0.4,0-0.8,0.1-1.2,0.1c-1.1,0-2.3-0.2-3.3-0.5
			c-0.9-0.3-1.8-0.9-2.5-1.6c-0.7-0.7-1.2-1.5-1.5-2.5c-0.4-1-0.5-2.1-0.5-3.2c0-1.1,0.2-2.3,0.6-3.3c0.4-1,0.9-1.8,1.7-2.5
			c0.7-0.7,1.6-1.2,2.5-1.6c1-0.4,2.1-0.6,3.2-0.6c0.6,0,1.2,0,1.7,0.1c0.5,0.1,1,0.2,1.4,0.4c0.3,0.1,0.7,0.3,1,0.4
			c0.2,0.1,0.4,0.2,0.6,0.4c0.1,0.1,0.2,0.2,0.2,0.4C21.7,19.5,21.7,19.7,21.7,19.9z"/>
		<path class="st1" d="M33.1,32.3c0,0.1,0,0.3,0,0.4c0,0.1,0,0.2-0.1,0.3c-0.1,0.1-0.2,0.2-0.3,0.2H25c-0.2,0-0.4-0.1-0.5-0.2
			c-0.2-0.2-0.3-0.4-0.3-0.6V18.6c0-0.2,0.1-0.5,0.3-0.6c0.2-0.1,0.3-0.2,0.5-0.2h7.6c0.1,0,0.1,0,0.2,0.1c0.1,0,0.1,0.1,0.1,0.2
			c0,0.1,0.1,0.2,0.1,0.3c0,0.1,0,0.3,0,0.4c0,0.1,0,0.3,0,0.4c0,0.1,0,0.2-0.1,0.3c0,0.1-0.1,0.1-0.1,0.1c-0.1,0-0.1,0-0.2,0h-6.3
			v4.8h5.4c0.1,0,0.1,0,0.2,0c0.1,0,0.1,0.1,0.1,0.1c0,0.1,0.1,0.2,0.1,0.3c0,0.1,0,0.2,0,0.4c0,0.1,0,0.2,0,0.4
			c0,0.1,0,0.2-0.1,0.2c0,0.1-0.1,0.1-0.1,0.1c-0.1,0-0.1,0-0.2,0h-5.4v5.5h6.4c0.1,0,0.3,0.1,0.3,0.2c0,0.1,0.1,0.2,0.1,0.3
			C33.1,32,33.1,32.2,33.1,32.3z"/>
		<path class="st1" d="M47.4,25.2c0,1.2-0.2,2.4-0.5,3.5c-0.3,0.9-0.9,1.8-1.6,2.4c-0.7,0.7-1.6,1.2-2.5,1.5
			c-1.1,0.4-2.3,0.5-3.5,0.5h-3.4c-0.2,0-0.4-0.1-0.5-0.2c-0.2-0.2-0.3-0.4-0.3-0.7V18.6c0-0.2,0.1-0.5,0.3-0.6
			c0.2-0.1,0.3-0.2,0.5-0.2h3.6c1.2,0,2.4,0.1,3.5,0.5c0.9,0.3,1.7,0.8,2.4,1.5c0.7,0.7,1.2,1.5,1.5,2.4
			C47.2,23.2,47.4,24.2,47.4,25.2z M45.1,25.3c0-0.8-0.1-1.6-0.3-2.3c-0.2-0.7-0.5-1.3-1-1.9c-0.5-0.5-1.1-1-1.7-1.2
			c-0.9-0.3-1.8-0.5-2.7-0.4h-2.2v12h2.2c0.9,0,1.8-0.1,2.6-0.4c0.7-0.2,1.3-0.6,1.8-1.1c0.5-0.5,0.9-1.2,1.1-1.9
			C45,27.2,45.2,26.3,45.1,25.3z"/>
		<path class="st2" d="M51.8,6.8L51.8,6.8c0.3,0,0.6,0.3,0.6,0.6V43c0,0.3-0.3,0.6-0.6,0.6h0c-0.3,0-0.6-0.3-0.6-0.6V7.4
			C51.2,7.1,51.5,6.8,51.8,6.8z"/>
		<path class="st3" d="M102,10v33.6c0,2-1.6,3.6-3.6,3.6H83.8l-12,7.8v-7.8H8.4c-2,0-3.6-1.6-3.6-3.6V7.4c0-2,1.6-3.6,3.6-3.6
			c0,0,0,0,0,0h84.2V3.2H8.4C6,3.2,4.1,5.1,4.1,7.4c0,0,0,0,0,0v36.2c0,2.3,1.9,4.2,4.2,4.2h62.9v8.4L84,47.8h14.4
			c2.3,0,4.2-1.9,4.2-4.2V10H102z"/>
	</g>
</g>
</svg>
