<?xml version="1.0" encoding="utf-8"?>
<!-- Generator: Adobe Illustrator 23.0.1, SVG Export Plug-In . SVG Version: 6.00 Build 0)  -->
<svg version="1.1" id="Layer_1" xmlns="http://www.w3.org/2000/svg" xmlns:xlink="https://www.w3.org/1999/xlink" x="0px" y="0px"
	 viewBox="0 0 858 536" style="enable-background:new 0 0 858 536;" xml:space="preserve">
<style type="text/css">
	.st0{fill:#58AA47;}
	.st1{fill:#F7931E;}
	.st2{clip-path:url(#SVGID_2_);}
	.st3{opacity:0.9;fill:#58AA47;}
	.st4{clip-path:url(#SVGID_4_);}
	.st5{clip-path:url(#SVGID_6_);}
	.st6{clip-path:url(#SVGID_8_);}
	.st7{clip-path:url(#SVGID_10_);}
	.st8{clip-path:url(#SVGID_12_);}
	.st9{clip-path:url(#SVGID_14_);}
</style>
<g>
	<path d="M391.89,221.84c2.98-5.28,7.15-9.54,12.51-12.86c5.36-3.32,11.32-4.94,17.87-4.94c9.79,0,17.45,3.66,22.99,11.07
		l-7.92,6.04c-4-5.02-9.36-7.49-16.01-7.49c-6.3,0-11.75,2.38-16.43,7.15c-4.6,4.77-6.9,10.21-6.9,16.43
		c0,5.53,1.79,10.04,5.36,13.45c3.58,3.41,8.26,5.11,14.13,5.11c5.02,0,9.53-1.36,13.36-4.08l2.47-12.09h-17.03l1.79-9.19h26.65
		l-5.28,26.64c-6.04,5.36-14.56,8.34-22.81,8.34c-8.6,0-15.66-2.55-21.11-7.66c-5.36-5.11-8.09-11.41-8.09-18.98
		C387.46,232.74,388.91,227.11,391.89,221.84"/>
	<path d="M449.08,252.74l6.39-31.24h10.3l-6.21,30.31c-0.17,1.02-0.26,1.7-0.26,2.04c0,1.7,0.85,2.55,2.47,2.55
		c0.85,0,1.45-0.08,1.79-0.17l-1.79,8.26c-1.11,0.43-2.64,0.6-4.51,0.6c-5.36,0-8.77-3.41-8.77-8.17
		C448.49,256.15,448.65,254.69,449.08,252.74 M456.57,211.11c0-3.49,3.06-6.72,6.72-6.72c3.32,0,5.71,2.38,5.71,5.45
		c0,3.49-2.98,6.64-6.81,6.64C458.87,216.47,456.57,214.26,456.57,211.11z"/>
	<path d="M467.8,264.4l8.77-42.9h10.3l-1.36,6.04c3.15-4.6,7.49-6.9,13.11-6.9c0.94,0,2.3,0.08,4,0.34l-1.96,9.62
		c-1.28-0.26-2.72-0.43-4.51-0.43c-7.07,0-12.17,5.11-13.79,12.94l-4.25,21.28H467.8z"/>
	<path d="M503.38,252.74l6.39-31.24h10.3l-6.21,30.31c-0.17,1.02-0.26,1.7-0.26,2.04c0,1.7,0.85,2.55,2.47,2.55
		c0.85,0,1.45-0.08,1.79-0.17l-1.79,8.26c-1.11,0.43-2.64,0.6-4.51,0.6c-5.36,0-8.77-3.41-8.77-8.17
		C502.78,256.15,502.95,254.69,503.38,252.74 M510.87,211.11c0-3.49,3.06-6.72,6.72-6.72c3.32,0,5.71,2.38,5.71,5.45
		c0,3.49-2.98,6.64-6.81,6.64C513.17,216.47,510.87,214.26,510.87,211.11z"/>
	<path d="M528.23,275.47c1.19,0.85,2.64,1.28,4.34,1.28c2.05,0,3.66-1.45,3.66-3.07c0-1.79-1.62-2.73-4.94-2.73h-0.08l3.58-5.79
		c-6.81-1.11-11.41-4.42-13.87-9.96l7.32-5.11c2.13,4.34,6.04,6.55,11.66,6.55c4.34,0,7.24-2.21,7.24-4.85
		c0-1.11-0.68-2.04-2.13-2.98c-0.76-0.43-1.45-0.85-2.21-1.11c-1.36-0.68-4.34-1.96-6.04-2.73c-5.7-2.81-8.6-6.73-8.6-11.58
		c0-3.57,1.53-6.64,4.51-9.28c2.98-2.64,6.72-3.92,11.07-3.92c6.47,0,11.92,2.9,14.64,7.58l-6.73,5.62c-1.53-2.98-4.17-4.43-8-4.43
		c-3.41,0-5.71,1.87-5.71,3.92c0,1.28,0.85,2.04,2.13,3.06c0.68,0.43,2.38,1.28,3.32,1.71c1.02,0.34,3.41,1.44,4.51,1.87
		c6.04,2.73,9.11,6.72,9.11,12.09c0,3.66-1.53,6.81-4.51,9.45c-2.98,2.64-6.81,4.08-11.58,4.34l-1.87,2.9
		c2.38,0.34,4.51,2.63,4.51,5.45c0,4.85-4.26,8.51-10.3,8.51c-3.41,0-6.81-1.11-8.09-2.47L528.23,275.47z"/>
	<path d="M562.78,252.74l6.39-31.24h10.3l-6.21,30.31c-0.17,1.02-0.26,1.7-0.26,2.04c0,1.7,0.85,2.55,2.47,2.55
		c0.85,0,1.45-0.08,1.79-0.17l-1.79,8.26c-1.11,0.43-2.64,0.6-4.51,0.6c-5.36,0-8.77-3.41-8.77-8.17
		C562.19,256.15,562.36,254.69,562.78,252.74 M570.28,211.11c0-3.49,3.06-6.72,6.72-6.72c3.32,0,5.71,2.38,5.71,5.45
		c0,3.49-2.98,6.64-6.81,6.64C572.58,216.47,570.28,214.26,570.28,211.11z"/>
	<path d="M581.51,264.4l8.77-42.9h10.3l-1.28,5.96c2.73-4.51,6.47-6.81,11.15-6.81c6.04,0,10.04,2.47,11.83,7.32
		c3.32-4.85,8-7.32,14.05-7.32c3.66,0,6.81,1.19,9.28,3.58c2.47,2.38,3.75,5.54,3.75,9.37c0,1.62-0.17,3.32-0.6,5.02l-2.64,12.94
		c-0.17,0.85-0.25,1.53-0.25,1.95c0,1.71,0.68,2.56,2.13,2.56h1.02l0.6-0.09l-1.7,8.17c-0.77,0.43-2.22,0.59-4.17,0.59
		c-5.19,0-8.68-3.4-8.68-8.17c0-0.94,0.17-2.39,0.6-4.26l2.64-13.02c0.17-0.6,0.25-1.53,0.25-2.64c0-4.43-2.3-6.89-6.38-6.89
		c-4.43,0-8,3.49-9.02,8.59l-5.28,26.05h-10.3l5.11-25.37c0.17-0.85,0.25-1.7,0.25-2.47c0-4.34-2.3-6.81-6.64-6.81
		c-4.77,0-8.34,3.66-9.45,9.36l-5.02,25.28H581.51z"/>
	<path d="M662.79,227.71c5.02-5.02,11.07-7.58,18.13-7.58c7.75,0,13.79,2.9,18.13,8.59l-7.49,5.96c-2.55-3.49-6.21-5.28-10.89-5.28
		c-4.17,0-7.66,1.54-10.64,4.68c-2.98,3.06-4.43,6.56-4.43,10.47c0,6.9,5.02,11.75,12.43,11.75c4,0,7.49-1.44,10.3-4.42l6.13,6.47
		c-4.68,4.85-10.47,7.24-17.28,7.24c-6.39,0-11.58-1.87-15.75-5.7c-4.09-3.83-6.13-8.69-6.13-14.56
		C655.3,238.61,657.77,232.74,662.79,227.71"/>
	<path d="M700.58,252.74l6.39-31.24h10.3l-6.21,30.31c-0.17,1.02-0.26,1.7-0.26,2.04c0,1.7,0.85,2.55,2.47,2.55
		c0.85,0,1.45-0.08,1.79-0.17l-1.79,8.26c-1.11,0.43-2.64,0.6-4.51,0.6c-5.36,0-8.77-3.41-8.77-8.17
		C699.98,256.15,700.15,254.69,700.58,252.74 M708.07,211.11c0-3.49,3.06-6.72,6.72-6.72c3.32,0,5.71,2.38,5.71,5.45
		c0,3.49-2.98,6.64-6.81,6.64C710.37,216.47,708.07,214.26,708.07,211.11z"/>
	<path d="M721.85,250.1l9.11-45.03h10.3l-9.1,44.69c-0.26,1.1-0.34,1.95-0.34,2.38c0,2.47,1.7,4.09,4.68,4.09
		c0.94,0,1.79-0.09,2.55-0.26l-1.79,8.94c-0.93,0.34-2.38,0.51-4.34,0.51c-7.15,0-11.66-4.26-11.66-10.64
		C721.26,253.84,721.43,252.23,721.85,250.1"/>
	<polygon points="775.73,264.4 787.81,205.07 798.03,205.07 791.14,238.78 809.61,221.5 822.04,221.5 801.78,240.99 815.05,264.4 
		803.99,264.4 794.03,247.03 788.24,252.57 785.94,264.4 	"/>
	<polygon points="385.25,332.09 397.34,272.76 435.13,272.76 433.18,282.37 406.02,282.37 403.13,296.59 428.49,296.59 
		426.62,306.04 401.25,306.04 397.93,322.47 425.68,322.47 423.64,332.09 	"/>
	<polygon points="432.4,332.09 444.49,272.76 454.7,272.76 447.81,306.46 466.28,289.18 478.71,289.18 458.45,308.68 471.73,332.09 
		460.66,332.09 450.7,314.72 444.91,320.25 442.62,332.09 	"/>
	<path d="M482.61,295.48c5.19-5.02,11.32-7.58,18.39-7.58c6.38,0,11.58,1.96,15.66,5.87c4.09,3.83,6.13,8.77,6.13,14.73
		c0,6.56-2.55,12.35-7.58,17.37c-5.02,5.02-11.15,7.49-18.47,7.49c-6.38,0-11.66-1.87-15.75-5.7c-4-3.83-6.04-8.69-6.04-14.56
		C474.95,306.38,477.51,300.5,482.61,295.48 M497.68,324c4.09,0,7.58-1.53,10.47-4.51c2.98-2.98,4.43-6.39,4.43-10.21
		c0-7.07-5.02-12-12.51-12c-4.17,0-7.66,1.53-10.56,4.6c-2.89,3.07-4.34,6.55-4.34,10.47C485.17,319.23,490.19,324,497.68,324z"/>
	<path d="M530.28,317.78c2.13,4.34,6.04,6.56,11.66,6.56c4.34,0,7.24-2.21,7.24-4.85c0-1.1-0.68-2.04-2.13-2.98
		c-0.76-0.42-1.45-0.85-2.21-1.1c-1.36-0.68-4.34-1.96-6.04-2.73c-5.7-2.81-8.6-6.73-8.6-11.58c0-3.58,1.53-6.64,4.51-9.28
		c2.98-2.64,6.72-3.92,11.07-3.92c6.47,0,11.92,2.9,14.64,7.58l-6.73,5.62c-1.53-2.98-4.17-4.42-8-4.42c-3.41,0-5.71,1.87-5.71,3.91
		c0,1.28,0.85,2.04,2.13,3.06c0.68,0.43,2.38,1.28,3.32,1.7c1.02,0.34,3.41,1.44,4.51,1.87c6.04,2.73,9.11,6.72,9.11,12.09
		c0,3.83-1.62,7.15-4.94,9.88c-3.32,2.64-7.58,4-12.85,4c-8.85,0-15.49-3.91-18.3-10.3L530.28,317.78z"/>
	<path d="M564.83,320.43l6.39-31.25h10.3l-6.21,30.31c-0.17,1.02-0.26,1.7-0.26,2.04c0,1.7,0.85,2.55,2.47,2.55
		c0.85,0,1.45-0.08,1.79-0.17l-1.79,8.26c-1.11,0.43-2.64,0.6-4.51,0.6c-5.36,0-8.77-3.4-8.77-8.17
		C564.24,323.83,564.41,322.38,564.83,320.43 M572.32,278.8c0-3.49,3.06-6.72,6.72-6.72c3.32,0,5.71,2.38,5.71,5.44
		c0,3.49-2.98,6.64-6.81,6.64C574.62,284.16,572.32,281.95,572.32,278.8z"/>
	<path d="M589.68,317.78c2.13,4.34,6.04,6.56,11.66,6.56c4.34,0,7.24-2.21,7.24-4.85c0-1.1-0.68-2.04-2.13-2.98
		c-0.76-0.42-1.45-0.85-2.21-1.1c-1.36-0.68-4.34-1.96-6.04-2.73c-5.7-2.81-8.6-6.73-8.6-11.58c0-3.58,1.53-6.64,4.51-9.28
		c2.98-2.64,6.72-3.92,11.07-3.92c6.47,0,11.92,2.9,14.64,7.58l-6.73,5.62c-1.53-2.98-4.17-4.42-8-4.42c-3.41,0-5.71,1.87-5.71,3.91
		c0,1.28,0.85,2.04,2.13,3.06c0.68,0.43,2.38,1.28,3.32,1.7c1.02,0.34,3.41,1.44,4.51,1.87c6.04,2.73,9.11,6.72,9.11,12.09
		c0,3.83-1.62,7.15-4.94,9.88c-3.32,2.64-7.58,4-12.85,4c-8.85,0-15.49-3.91-18.3-10.3L589.68,317.78z"/>
	<path d="M627.13,317.78l3.92-19.32h-5.36l1.96-9.28h5.28l3.32-16.43h10.21l-3.32,16.43h9.62l-1.87,9.28h-9.62l-3.83,18.98
		c-0.26,1.02-0.34,1.79-0.34,2.38c0,2.47,1.62,4.08,4.6,4.08c1.45,0,2.55-0.08,3.49-0.25l-1.87,8.85c-1.11,0.43-2.81,0.6-5.02,0.6
		c-7.23,0-11.83-4.26-11.83-10.64C626.45,321.53,626.71,319.91,627.13,317.78"/>
	<path d="M658.28,295.82c4.85-5.11,10.81-7.66,17.88-7.66c5.87,0,10.64,1.79,14.13,5.44c3.57,3.66,5.36,8.26,5.36,13.88
		c0,2.13-0.34,4-0.94,5.79h-33.28c-0.08,0.09-0.17,0.51-0.17,1.11c0,6.39,4.52,10.22,12.35,10.22c4.26,0,8-1.53,11.24-4.68
		l5.53,6.21c-4.93,4.86-10.98,7.32-18.05,7.32c-6.47,0-11.66-1.79-15.49-5.36c-3.83-3.58-5.7-8.34-5.7-14.3
		C651.13,306.89,653.51,300.93,658.28,295.82 M685.78,306.12v-0.51c0-5.02-4.09-8.77-9.88-8.77c-6.21,0-11.49,3.75-13.53,9.28
		H685.78z"/>
	<path d="M697.69,332.09l8.77-42.9h10.3l-1.28,5.96c2.73-4.51,6.47-6.81,11.15-6.81c6.04,0,10.04,2.47,11.83,7.32
		c3.32-4.85,8-7.32,14.05-7.32c3.66,0,6.81,1.19,9.28,3.57c2.47,2.38,3.75,5.54,3.75,9.36c0,1.62-0.17,3.32-0.6,5.02l-2.64,12.94
		c-0.17,0.85-0.25,1.53-0.25,1.95c0,1.7,0.68,2.56,2.13,2.56h1.02l0.6-0.09l-1.7,8.17c-0.77,0.43-2.21,0.59-4.17,0.59
		c-5.19,0-8.68-3.4-8.68-8.17c0-0.94,0.17-2.39,0.6-4.26l2.64-13.02c0.17-0.6,0.25-1.53,0.25-2.64c0-4.43-2.3-6.89-6.38-6.89
		c-4.43,0-8,3.49-9.02,8.6l-5.28,26.05h-10.3l5.11-25.37c0.17-0.85,0.25-1.7,0.25-2.47c0-4.34-2.3-6.81-6.64-6.81
		c-4.77,0-8.34,3.66-9.45,9.36l-5.02,25.28H697.69z"/>
	<path d="M772.07,320.43l6.39-31.25h10.3l-6.21,30.31c-0.17,1.02-0.26,1.7-0.26,2.04c0,1.7,0.85,2.55,2.47,2.55
		c0.85,0,1.45-0.08,1.79-0.17l-1.79,8.26c-1.11,0.43-2.64,0.6-4.51,0.6c-5.36,0-8.77-3.4-8.77-8.17
		C771.48,323.83,771.64,322.38,772.07,320.43 M779.56,278.8c0-3.49,3.06-6.72,6.72-6.72c3.32,0,5.71,2.38,5.71,5.44
		c0,3.49-2.98,6.64-6.81,6.64C781.86,284.16,779.56,281.95,779.56,278.8z"/>
	<path d="M385.26,399.77l12.36-60.65h19.75c8.35,0,15.14,2.52,20.45,7.65c5.31,5.14,7.92,11.66,7.92,19.58
		c0,16.79-13.92,33.41-33.5,33.41H385.26z M398.23,389.94h14.36c6.17,0,11.4-2.26,15.66-6.87c4.35-4.61,6.52-9.83,6.52-15.66
		c0-5.4-1.65-9.83-5.04-13.23c-3.31-3.39-7.66-5.13-13.14-5.13h-10.01L398.23,389.94z"/>
	<path d="M455.92,362.7c4.96-5.22,11.05-7.84,18.27-7.84c6,0,10.88,1.83,14.44,5.57c3.66,3.74,5.48,8.44,5.48,14.19
		c0,2.18-0.35,4.09-0.96,5.92h-34.02c-0.09,0.08-0.18,0.52-0.18,1.13c0,6.53,4.61,10.44,12.62,10.44c4.35,0,8.18-1.57,11.49-4.79
		l5.65,6.35c-5.05,4.96-11.22,7.48-18.45,7.48c-6.61,0-11.92-1.83-15.84-5.48c-3.91-3.66-5.83-8.53-5.83-14.62
		C448.61,374.01,451.05,367.92,455.92,362.7 M484.03,373.23v-0.52c0-5.14-4.18-8.96-10.09-8.96c-6.35,0-11.75,3.83-13.84,9.49
		H484.03z"/>
	<path d="M496.22,399.77l8.96-43.85h10.53l-1.4,6.18c3.22-4.7,7.66-7.05,13.4-7.05c0.96,0,2.35,0.09,4.09,0.35l-2,9.83
		c-1.3-0.26-2.78-0.44-4.61-0.44c-7.22,0-12.44,5.22-14.1,13.23l-4.35,21.75H496.22z"/>
	<path d="M530.15,399.77l8.88-43.85h10.44l-1.3,6.18c3.04-4.7,7.31-7.05,12.79-7.05c4.26,0,7.92,1.22,10.79,3.66
		c2.87,2.44,4.35,5.65,4.35,9.57c0,1.65-0.17,3.39-0.61,5.14l-2.7,13.22c-0.18,0.87-0.26,1.56-0.26,2c0,1.74,0.7,2.61,2.18,2.61
		h0.96l0.52-0.09l-1.74,8.35c-0.78,0.44-2.18,0.61-4.09,0.61c-5.31,0-8.88-3.48-8.88-8.35c0-0.96,0.18-2.44,0.61-4.35l2.7-13.32
		c0.17-0.61,0.26-1.56,0.26-2.7c0-4.52-2.96-7.05-8.27-7.05c-5.57,0-10.01,4.35-11.31,10.88l-4.96,24.54H530.15z"/>
	<path d="M588.81,362.7c4.96-5.22,11.05-7.84,18.27-7.84c6,0,10.88,1.83,14.44,5.57c3.66,3.74,5.48,8.44,5.48,14.19
		c0,2.18-0.35,4.09-0.96,5.92h-34.02c-0.09,0.08-0.18,0.52-0.18,1.13c0,6.53,4.61,10.44,12.62,10.44c4.35,0,8.18-1.57,11.49-4.79
		l5.65,6.35c-5.05,4.96-11.22,7.48-18.45,7.48c-6.61,0-11.92-1.83-15.84-5.48c-3.91-3.66-5.83-8.53-5.83-14.62
		C581.5,374.01,583.93,367.92,588.81,362.7 M616.91,373.23v-0.52c0-5.14-4.18-8.96-10.09-8.96c-6.35,0-11.75,3.83-13.83,9.49H616.91
		z"/>
	<path d="M634.5,404.03c4.26,3.74,9.13,5.66,14.7,5.66c8.44,0,13.75-4.18,15.84-12.53l0.7-3.04c-2.7,4.26-7.48,6.35-14.18,6.35
		c-5.83,0-10.62-1.83-14.53-5.57c-3.92-3.74-5.83-8.53-5.83-14.45c0-6.87,2.52-12.79,7.57-17.84c5.13-5.13,11.05-7.65,17.92-7.65
		c7.92,0,13.66,3.22,15.31,6.7l1.22-5.74h10.35l-7.83,38.29c-1.13,5.57-2.09,9.22-4.78,13.83c-1.31,2.35-2.87,4.18-4.7,5.66
		c-3.48,3.04-9.57,5.22-16.97,5.22c-8.87,0-15.92-2.52-21.06-7.66L634.5,404.03z M654.07,391.24c4.26,0,7.92-1.48,10.97-4.44
		c3.04-2.96,4.61-6.79,4.61-11.4c0-6.53-5.13-10.97-12.79-10.97c-4.17,0-7.74,1.56-10.79,4.61c-2.96,3.04-4.44,6.61-4.44,10.53
		C641.63,386.46,646.68,391.24,654.07,391.24z M649.11,339.03h7.92c0.35,3.4,2.35,5.05,5.92,5.05c3.65,0,6.09-1.65,7.39-5.05h8.01
		c-2.09,7.4-8.01,12.36-16.1,12.36C653.9,351.39,649.11,346.34,649.11,339.03z"/>
	<path d="M686.1,387.85l6.52-31.93h10.53l-6.35,30.97c-0.18,1.04-0.26,1.74-0.26,2.09c0,1.74,0.87,2.61,2.52,2.61
		c0.87,0,1.48-0.08,1.83-0.17l-1.83,8.43c-1.13,0.44-2.7,0.61-4.61,0.61c-5.48,0-8.97-3.48-8.97-8.35
		C685.49,391.33,685.67,389.85,686.1,387.85 M693.76,345.3c0-3.57,3.13-6.87,6.87-6.87c3.39,0,5.83,2.44,5.83,5.57
		c0,3.56-3.04,6.79-6.96,6.79C696.11,350.78,693.76,348.52,693.76,345.3z"/>
	<path class="st0" d="M736.27,180.09c0,0,13.74,23.18,46.08,21.78l-2.45,11.32C779.9,213.19,748.5,205.4,736.27,180.09"/>
	<path class="st0" d="M734.05,192.5c0,0,13.74,23.18,46.08,21.78l-2.45,11.32C777.68,225.6,746.28,217.81,734.05,192.5"/>
	<path class="st0" d="M742.06,268.61c0,0,23.89-12.45,24.26-44.82l11.17,3.06C777.5,226.85,768,257.78,742.06,268.61"/>
	<path class="st0" d="M785.34,183.87c2.3,5.34-0.17,11.54-5.51,13.83c-5.35,2.3-11.54-0.17-13.84-5.51
		c-2.3-5.34,0.18-11.54,5.52-13.83C776.85,176.06,783.05,178.53,785.34,183.87"/>
	<path class="st1" d="M580.57,394.77c-41.64,69.37-127.73,81.47-170.78,81.47c-131.08,0-155.45-125.72-155.45-125.72
		c-62.75,52.47-140.15,24.58-158.69,12.06c-9.68-6.54-61.51-41.66-64.72-104.02c-1.25-24.25,3.1-49,24.22-75.95
		C129.18,88.15,227.6,138.6,227.6,138.6C289.42,56.3,353.52,34.79,407.12,32.13c97.13-4.82,165.71,68.41,165.71,68.41
		c9.85-17.49,97.89-63.91,156.86,2.01c35.45,39.62,33.88,77.62,33.88,77.62s6.29-5.43,12.66-5.43c6.11,0,11.98,5.71,11.98,5.71
		s-0.35-59.71-48.64-105.14C663.22,3.48,574.47,56.3,574.47,56.3C465.95-19.72,370.67-7.3,305.79,24.48
		c-58.04,28.42-91.56,72.98-91.56,72.98c-53.75-9-81.27-4.12-123.8,15.17c-42.54,19.29-84,64.81-89.4,113.97
		c-5.4,49.16,8.49,116.73,76.97,160.71c68.48,43.98,149.62,14.66,149.62,14.66c9.37,30.34,55.26,102.16,150.2,109.56
		c0,0,127.01,20.48,217.62-79.3l26.17-30.69C621.59,401.53,597.87,416.21,580.57,394.77"/>
</g>
</svg>
